<svg viewBox="0 0 400 300" xmlns="http://www.w3.org/2000/svg">
  <!-- Background -->
  <rect x="0" y="0" width="400" height="300" fill="#f0f0f0"/>
  
  <!-- Title -->
  <text x="200" y="30" font-family="Arial" font-size="16" text-anchor="middle" font-weight="bold">2D Homeomorphism Visualization</text>
  
  <!-- Original shape (circle) -->
  <circle cx="100" cy="120" r="50" fill="none" stroke="#1a73e8" stroke-width="2"/>
  <text x="100" y="190" font-family="Arial" font-size="12" text-anchor="middle" fill="#1a73e8">Original Space</text>
  
  <!-- Transformation arrow -->
  <line x1="160" y1="120" x2="220" y2="120" stroke="#333" stroke-width="2"/>
  <polygon points="220,120 214,115 214,125" fill="#333"/>
  <text x="190" y="110" font-family="Arial" font-size="14" text-anchor="middle">f(x,y)</text>
  
  <!-- Equation -->
  <text x="190" y="145" font-family="Arial" font-size="12" text-anchor="middle" font-style="italic">  f(x,y) = (x²-y², 2xy)</text>
  
  <!-- Transformed shape (deformed) -->
  <path d="M 300 120 C 320 80 350 70 350 120 C 350 170 320 160 300 120" fill="none" stroke="#e8731a" stroke-width="2"/>
  <text x="300" y="190" font-family="Arial" font-size="12" text-anchor="middle" fill="#e8731a">Homeomorphic Image</text>
  
  <!-- Grid lines for original -->
  <g stroke="#1a73e8" stroke-width="0.5" opacity="0.5">
    <line x1="50" y1="120" x2="150" y2="120"/>
    <line x1="100" y1="70" x2="100" y2="170"/>
    <circle cx="100" cy="120" r="25" fill="none"/>
    <line x1="75" y1="95" x2="125" y2="145"/>
    <line x1="125" y1="95" x2="75" y2="145"/>
  </g>
  
  <!-- Grid lines for transformed -->
  <g stroke="#e8731a" stroke-width="0.5" opacity="0.5">
    <path d="M 250 120 C 275 110 325 110 350 120" fill="none"/>
    <path d="M 300 70 C 310 95 310 145 300 170" fill="none"/>
    <path d="M 275 95 C 290 105 310 105 325 95" fill="none"/>
    <path d="M 325 145 C 310 135 290 135 275 145" fill="none"/>
    <path d="M 275 95 C 285 115 315 125 325 145" fill="none"/>
    <path d="M 275 145 C 285 125 315 115 325 95" fill="none"/>
  </g>
  
  <!-- Mathematical properties -->
  <text x="200" y="230" font-family="Arial" font-size="11" text-anchor="middle">Complex mapping: w = z² where z = x+iy, w = u+iv</text>
  <text x="200" y="250" font-family="Arial" font-size="11" text-anchor="middle">Preserves topology but not geometry</text>
  <text x="200" y="270" font-family="Arial" font-size="11" text-anchor="middle">Order emerges from apparent chaos</text>
</svg>
